<svg width="200" height="50" viewBox="0 0 200 50" fill="none" xmlns="http://www.w3.org/2000/svg">
  <!-- Monitor -->
  <rect x="10" y="5" width="50" height="30" rx="5" fill="#00B2A9"/>
  <path d="M20 15C20 14.4477 20.4477 14 21 14H48C48.5523 14 49 14.4477 49 15V24C49 24.5523 48.5523 25 48 25H21C20.4477 25 20 24.5523 20 24V15Z" fill="white"/>
  <path d="M35 10C35 9.44772 34.5523 9 34 9H36C36.5523 9 37 9.44772 37 10V11C37 11.5523 36.5523 12 36 12H34C34.4477 12 35 11.5523 35 11V10Z" fill="#00B2A9"/>
  
  <!-- Gear -->
  <circle cx="60" cy="20" r="15" fill="black"/>
  <circle cx="60" cy="20" r="12" fill="#333"/>
  <rect x="58" y="5" width="4" height="8" rx="2" fill="#00B2A9"/>
  <rect x="58" y="27" width="4" height="8" rx="2" fill="#00B2A9"/>
  <rect x="45" y="18" width="8" height="4" rx="2" fill="#00B2A9"/>
  <rect x="67" y="18" width="8" height="4" rx="2" fill="#00B2A9"/>
  <rect x="49.5" y="11.5" width="4" height="4" rx="2" transform="rotate(45 49.5 11.5)" fill="#00B2A9"/>
  <rect x="66.5" y="28.5" width="4" height="4" rx="2" transform="rotate(45 66.5 28.5)" fill="#00B2A9"/>
  <rect x="49.5" y="28.5" width="4" height="4" rx="2" transform="rotate(-45 49.5 28.5)" fill="#00B2A9"/>
  <rect x="66.5" y="11.5" width="4" height="4" rx="2" transform="rotate(-45 66.5 11.5)" fill="#00B2A9"/>
  
  <!-- Phone -->
  <rect x="85" y="10" width="30" height="50" rx="5" fill="#FF6B35"/>
  <rect x="90" y="15" width="20" height="35" rx="2" fill="white"/>
  <rect x="97" y="53" width="6" height="2" rx="1" fill="#FF6B35"/>
  
  <!-- Arrow -->
  <path d="M125 35H150L145 30M150 35L145 40" stroke="#FF6B35" stroke-width="2" stroke-linecap="round"/>
  
  <!-- Text -->
  <text x="160" y="25" font-family="Arial, sans-serif" font-size="24" font-weight="bold" fill="#E0E0E0">APPLE DEALS</text>
  <text x="160" y="45" font-family="Arial, sans-serif" font-size="16" font-weight="bold" fill="#E0E0E0">G H A N A</text>
</svg>
